<?xml version="1.0" standalone="no"?>
<!DOCTYPE svg PUBLIC "-//W3C//DTD SVG 20010904//EN"
 "http://www.w3.org/TR/2001/REC-SVG-20010904/DTD/svg10.dtd">
<svg version="1.0" xmlns="http://www.w3.org/2000/svg"
 width="200.000000pt" height="200.000000pt" viewBox="0 0 200.000000 200.000000"
 preserveAspectRatio="xMidYMid meet">

<g transform="translate(0.000000,200.000000) scale(0.100000,-0.100000)"
fill="#000000" stroke="none">
<path d="M437 1685 c-41 -14 -81 -47 -100 -80 -7 -12 -14 -105 -17 -230 -6
-180 -9 -217 -26 -250 -24 -50 -71 -75 -141 -75 l-53 0 0 -50 0 -50 53 0 c70
0 117 -25 141 -75 17 -33 20 -70 26 -250 6 -224 9 -235 60 -279 39 -32 88 -46
168 -46 l62 0 0 45 0 45 -40 0 c-54 0 -104 22 -126 56 -15 23 -19 58 -24 233
-5 192 -7 209 -28 243 -12 20 -40 45 -63 56 l-40 20 46 26 c73 43 78 62 86
291 3 110 11 211 16 225 19 44 48 61 112 67 l61 6 0 43 0 44 -67 0 c-38 -1
-85 -7 -106 -15z"/>
<path d="M1390 1655 l0 -45 43 0 c54 0 108 -27 126 -64 9 -20 16 -92 20 -230
7 -230 14 -253 89 -294 l42 -24 -42 -22 c-75 -39 -82 -62 -89 -291 -4 -110
-11 -211 -17 -225 -18 -45 -48 -63 -112 -68 l-60 -4 0 -44 0 -44 61 0 c109 0
164 23 205 85 17 26 20 54 24 240 5 182 8 215 25 250 25 50 72 75 143 75 l52
0 0 50 0 50 -52 0 c-71 0 -118 25 -143 75 -17 35 -20 69 -26 255 -4 118 -7
216 -8 217 0 1 -15 18 -32 38 -37 42 -105 65 -191 65 l-58 0 0 -45z"/>
<path d="M733 1580 c-31 -13 -57 -57 -57 -98 0 -28 7 -42 37 -67 l37 -32 0
-384 0 -384 -34 -27 c-41 -33 -51 -67 -32 -112 29 -70 112 -83 161 -24 36 43
33 82 -10 125 -40 40 -43 56 -16 99 25 41 59 51 197 57 138 7 182 25 213 90
12 24 21 50 21 59 0 9 12 23 26 33 14 9 32 32 40 51 12 29 12 39 0 68 -8 19
-26 42 -40 51 -35 23 -34 56 3 78 42 25 57 76 36 120 -9 19 -27 40 -40 47 -35
19 -31 48 11 84 28 24 36 39 37 67 3 98 -105 142 -167 68 -23 -27 -30 -29 -95
-29 -43 0 -71 4 -73 11 -4 12 -88 -29 -88 -42 0 -3 19 -16 42 -29 28 -16 43
-20 46 -12 2 8 29 12 72 12 65 0 70 -2 104 -36 45 -45 45 -70 4 -105 -29 -23
-33 -33 -33 -74 0 -41 4 -51 33 -74 41 -35 41 -60 -3 -104 -48 -48 -48 -86 0
-134 42 -42 41 -74 -1 -114 -22 -21 -38 -24 -155 -30 -98 -5 -139 -12 -169
-27 l-40 -19 0 322 0 323 35 35 c44 44 47 84 8 127 -30 33 -75 45 -110 30z
m77 -70 c21 -38 -22 -80 -61 -60 -19 10 -27 59 -12 73 15 15 63 7 73 -13z
m458 -17 c4 -43 -28 -62 -64 -38 -27 17 -29 27 -13 56 8 15 19 19 42 17 28 -3
32 -7 35 -35z m-10 -215 c27 -27 7 -78 -29 -78 -21 0 -49 26 -49 45 0 35 53
58 78 33z m-4 -241 c25 -18 18 -67 -12 -78 -17 -6 -27 -4 -42 11 -25 25 -25
35 0 60 24 24 30 24 54 7z m-454 -497 c24 -24 24 -30 7 -54 -9 -12 -23 -17
-42 -14 -25 2 -31 8 -33 33 -3 19 2 33 14 42 24 17 30 17 54 -7z"/>
</g>
</svg>
